<?xml version="1.0" encoding="UTF-8" standalone="no"?>
<svg
   viewBox="0 0 24 24"
   version="1.1"
   id="svg9"
   sodipodi:docname="edit-circle.svg"
   inkscape:version="1.2.2 (b0a8486541, 2022-12-01)"
   xmlns:inkscape="http://www.inkscape.org/namespaces/inkscape"
   xmlns:sodipodi="http://sodipodi.sourceforge.net/DTD/sodipodi-0.dtd"
   xmlns="http://www.w3.org/2000/svg"
   xmlns:svg="http://www.w3.org/2000/svg">
  <defs
     id="defs13" />
  <sodipodi:namedview
     id="namedview11"
     pagecolor="#ffffff"
     bordercolor="#666666"
     borderopacity="1.0"
     inkscape:showpageshadow="2"
     inkscape:pageopacity="0.0"
     inkscape:pagecheckerboard="0"
     inkscape:deskcolor="#d1d1d1"
     showgrid="false"
     inkscape:zoom="30.958333"
     inkscape:cx="4.7644684"
     inkscape:cy="12.193809"
     inkscape:window-width="1676"
     inkscape:window-height="928"
     inkscape:window-x="564"
     inkscape:window-y="224"
     inkscape:window-maximized="0"
     inkscape:current-layer="info-circle" />
  <g
     id="info-circle">
    <path
       d="M12,21a9,9,0,1,1,9-9A9,9,0,0,1,12,21ZM12,4.5A7.5,7.5,0,1,0,19.5,12,7.5,7.5,0,0,0,12,4.5Z"
       id="path6" />
    <g
       id="g1112"
       transform="rotate(-15,12.19871,11.781916)">
      <path
         d="m 9.4010383,14.604787 a 0.8380734,0.86735094 0 0 1 0,-1.21048 L 13.299771,9.3593751 a 0.82704612,0.85593842 0 0 1 1.16962,1.2104789 l -3.898733,4.034933 a 0.8380734,0.86735094 0 0 1 -1.1696197,0 z"
         id="path2"
         style="stroke-width:1.12182" />
      <path
         d="m 14.70338,9.0389465 a 0.8263738,0.81309905 0 0 1 0,-1.1347655 l 0.384431,-0.3782552 a 0.81550046,0.80240038 0 0 1 1.153291,1.1347655 l -0.384431,0.3782552 a 0.8263738,0.81309905 0 0 1 -1.153291,0 z"
         id="path4"
         style="stroke-width:1.07857" />
      <path
         sodipodi:type="star"
         style="fill:#000000;fill-opacity:1;stroke:#000000;stroke-width:4.51276;stroke-linecap:round;stroke-dashoffset:3.77953;stroke-opacity:1"
         id="path430"
         inkscape:flatsided="false"
         sodipodi:sides="3"
         sodipodi:cx="8.1722746"
         sodipodi:cy="14.309556"
         sodipodi:r1="0.99507433"
         sodipodi:r2="0.49753717"
         sodipodi:arg1="0.22923193"
         sodipodi:arg2="1.2764295"
         inkscape:rounded="0"
         inkscape:randomized="0"
         d="m 9.141319,14.535666 -0.824692,0.250026 -0.8246919,0.250026 0.1958173,-0.839217 0.1958173,-0.839217 0.6288746,0.589191 z"
         inkscape:transform-center-x="-0.029585216"
         inkscape:transform-center-y="-0.023171525"
         transform="matrix(0.20495238,0,0,0.20495238,7.0148174,12.515889)"
         inkscape:highlight-color="#000000" />
    </g>
  </g>
</svg>
